<svg width="14" height="14" viewBox="0 0 14 14" fill="none" xmlns="http://www.w3.org/2000/svg">
<path d="M13.3333 6.99992C13.3333 10.6818 10.3486 13.6666 6.66667 13.6666C2.9848 13.6666 0 10.6818 0 6.99992C0 3.31802 2.9848 0.333252 6.66667 0.333252V1.66659C3.72113 1.66659 1.33333 4.0544 1.33333 6.99992C1.33333 9.94545 3.72113 12.3333 6.66667 12.3333C9.6122 12.3333 12 9.94545 12 6.99992C12 5.16673 11.0751 3.54957 9.66653 2.58959L9.66667 4.33325H8.33333V0.333252H12.3333V1.66659L10.6672 1.66651C12.2862 2.88281 13.3333 4.81907 13.3333 6.99992Z" fill="#FF6701"/>
</svg>
